<svg width="39" height="41" viewBox="0 0 39 41" fill="none" xmlns="http://www.w3.org/2000/svg">
<path d="M21.7941 38.7222C23.6946 38.7222 25.2353 37.1925 25.2353 35.3056C25.2353 32.1606 27.8031 29.6111 30.9706 29.6111C32.8711 29.6111 34.4118 28.0814 34.4118 26.1944V19.3611C34.4118 18.7321 34.9253 18.2222 35.5588 18.2222C36.1923 18.2222 36.7059 18.7321 36.7059 19.3611V26.1944C36.7059 34.3713 30.0297 41 21.7941 41H5.73529C2.56778 41 0 38.4505 0 35.3056V5.69444C0 2.54949 2.56778 0 5.73529 0H19.5C20.1335 0 20.6471 0.509898 20.6471 1.13889C20.6471 1.76788 20.1335 2.27778 19.5 2.27778H5.73529C3.83478 2.27778 2.29412 3.80747 2.29412 5.69444V35.3056C2.29412 37.1925 3.83478 38.7222 5.73529 38.7222H21.7941ZM27.0507 37.5866C29.7946 36.3365 32.0089 34.1379 33.268 31.4136C32.5646 31.7193 31.7875 31.8889 30.9706 31.8889C29.0701 31.8889 27.5294 33.4186 27.5294 35.3056C27.5294 36.1167 27.3586 36.8882 27.0507 37.5866ZM32.1176 6.83333H37.8529C38.4864 6.83333 39 7.34323 39 7.97222C39 8.60121 38.4864 9.11111 37.8529 9.11111H32.1176V14.8056C32.1176 15.4345 31.6041 15.9444 30.9706 15.9444C30.3371 15.9444 29.8235 15.4345 29.8235 14.8056V9.11111H24.0882C23.4547 9.11111 22.9412 8.60121 22.9412 7.97222C22.9412 7.34323 23.4547 6.83333 24.0882 6.83333H29.8235V1.13889C29.8235 0.509898 30.3371 0 30.9706 0C31.6041 0 32.1176 0.509898 32.1176 1.13889V6.83333ZM10.3235 13.6667C9.69003 13.6667 9.17647 13.1568 9.17647 12.5278C9.17647 11.8988 9.69003 11.3889 10.3235 11.3889H19.5C20.1335 11.3889 20.6471 11.8988 20.6471 12.5278C20.6471 13.1568 20.1335 13.6667 19.5 13.6667H10.3235ZM10.3235 20.5C9.69003 20.5 9.17647 19.9901 9.17647 19.3611C9.17647 18.7321 9.69003 18.2222 10.3235 18.2222H26.3824C27.0159 18.2222 27.5294 18.7321 27.5294 19.3611C27.5294 19.9901 27.0159 20.5 26.3824 20.5H10.3235ZM10.3235 27.3333C9.69003 27.3333 9.17647 26.8234 9.17647 26.1944C9.17647 25.5655 9.69003 25.0556 10.3235 25.0556H21.7941C22.4276 25.0556 22.9412 25.5655 22.9412 26.1944C22.9412 26.8234 22.4276 27.3333 21.7941 27.3333H10.3235Z" fill="black"/>
</svg>
