<svg width="68" height="68" viewBox="0 0 68 68" fill="none" xmlns="http://www.w3.org/2000/svg">
<g filter="url(#filter0_d_87_14)">
<circle cx="34" cy="30" r="30" fill="white"/>
<circle cx="34" cy="30" r="29.5" stroke="black" stroke-opacity="0.3"/>
</g>
<path d="M41.9251 32.1166L49.7026 35.6518C51.7107 36.5646 53 38.5668 53 40.7726V42.375C53 45.4816 50.4816 48 47.375 48H22.625C19.5184 48 17 45.4816 17 42.375V40.7726C17 38.5668 18.2893 36.5646 20.2974 35.6518L28.0749 32.1166C25.4422 30.0575 23.75 26.8513 23.75 23.25C23.75 17.0368 28.7868 12 35 12C41.2132 12 46.25 17.0368 46.25 23.25C46.25 26.8513 44.5578 30.0575 41.9251 32.1166ZM30.4128 33.5254L21.2284 37.7001C20.0236 38.2478 19.25 39.4491 19.25 40.7726V42.375C19.25 44.239 20.761 45.75 22.625 45.75H47.375C49.239 45.75 50.75 44.239 50.75 42.375V40.7726C50.75 39.4491 49.9764 38.2478 48.7716 37.7001L39.5872 33.5254C38.1862 34.1517 36.6338 34.5 35 34.5C33.3662 34.5 31.8138 34.1517 30.4128 33.5254ZM35 32.25C39.9706 32.25 44 28.2206 44 23.25C44 18.2794 39.9706 14.25 35 14.25C30.0294 14.25 26 18.2794 26 23.25C26 28.2206 30.0294 32.25 35 32.25Z" fill="black"/>
<defs>
<filter id="filter0_d_87_14" x="0" y="0" width="68" height="68" filterUnits="userSpaceOnUse" color-interpolation-filters="sRGB">
<feFlood flood-opacity="0" result="BackgroundImageFix"/>
<feColorMatrix in="SourceAlpha" type="matrix" values="0 0 0 0 0 0 0 0 0 0 0 0 0 0 0 0 0 0 127 0" result="hardAlpha"/>
<feOffset dy="4"/>
<feGaussianBlur stdDeviation="2"/>
<feComposite in2="hardAlpha" operator="out"/>
<feColorMatrix type="matrix" values="0 0 0 0 0 0 0 0 0 0 0 0 0 0 0 0 0 0 0.25 0"/>
<feBlend mode="normal" in2="BackgroundImageFix" result="effect1_dropShadow_87_14"/>
<feBlend mode="normal" in="SourceGraphic" in2="effect1_dropShadow_87_14" result="shape"/>
</filter>
</defs>
</svg>
